<svg width="28" height="28" viewBox="0 0 28 28" fill="none" xmlns="http://www.w3.org/2000/svg">
<g clip-path="url(#clip0_1536_401)">
<path fill-rule="evenodd" clip-rule="evenodd" d="M12.9774 2.06568C13.2772 1.85577 13.6342 1.74316 14.0002 1.74316C14.3661 1.74316 14.7232 1.85577 15.0229 2.06568C15.3185 2.27275 15.5443 2.56462 15.6704 2.90259L18.0728 8.95209L18.0799 8.97078C18.0822 8.97676 18.0861 8.98196 18.0912 8.98575C18.0963 8.98954 18.1024 8.99176 18.1088 8.99213L18.1142 8.99244L24.5673 9.40809C26.2425 9.51686 26.815 11.6138 25.5958 12.6273C25.5956 12.6275 25.5954 12.6277 25.5951 12.6278L20.6528 16.7501L20.6499 16.7525C20.6388 16.7617 20.6305 16.7738 20.626 16.7875C20.6216 16.8009 20.621 16.8152 20.6241 16.8288C20.6242 16.8292 20.6243 16.8296 20.6244 16.8299L22.22 23.1031C22.6064 24.6281 20.9596 26.0015 19.5271 25.0979L19.5249 25.0965L14.0124 21.5965C14.0089 21.5943 14.0043 21.5928 14.0002 21.5928C13.996 21.5928 13.9919 21.594 13.9884 21.5962L13.987 21.5971L8.85899 24.8445C8.85872 24.8447 8.85845 24.8448 8.85819 24.845C7.28669 25.8441 5.47162 24.3251 5.90063 22.6436C5.90056 22.6438 5.9007 22.6433 5.90063 22.6436L7.37591 16.8299C7.376 16.8296 7.37608 16.8293 7.37615 16.8289C7.37936 16.8152 7.37873 16.8009 7.37432 16.7875C7.3698 16.7738 7.36151 16.7617 7.35039 16.7525L7.34752 16.7501L2.40518 12.6278C2.40495 12.6276 2.40472 12.6275 2.40448 12.6273C1.18535 11.6138 1.75738 9.51689 3.43252 9.40812L9.89152 8.99211C9.89789 8.99174 9.90401 8.98954 9.90913 8.98575C9.91426 8.98196 9.91817 8.97676 9.92038 8.97078L9.92756 8.95209L12.3299 2.90259C12.456 2.56462 12.6818 2.27275 12.9774 2.06568ZM14.0002 3.49316C13.9934 3.49316 13.9869 3.49524 13.9813 3.4991C13.9758 3.50296 13.9716 3.50843 13.9693 3.51476C13.9664 3.52275 13.9634 3.53069 13.9603 3.53859L11.5571 9.59024C11.4359 9.9104 11.2252 10.189 10.9499 10.3927C10.6722 10.598 10.341 10.7183 9.99629 10.739L3.54592 11.1544C3.54583 11.1544 3.54602 11.1544 3.54592 11.1544C3.53318 11.1553 3.52792 11.1575 3.52782 11.1575C3.52743 11.1577 3.5271 11.1578 3.52598 11.1587C3.5228 11.1614 3.51204 11.1728 3.50479 11.1962C3.49751 11.2198 3.4986 11.2401 3.50171 11.2519C3.50307 11.2571 3.50482 11.2609 3.50685 11.2641C3.5087 11.267 3.51302 11.2731 3.52326 11.2816L3.52468 11.2828L8.46555 15.4038C8.46613 15.4043 8.4667 15.4048 8.46727 15.4052C8.73165 15.6244 8.92891 15.9136 9.03639 16.2398C9.14411 16.5667 9.15729 16.9173 9.07441 17.2514L9.07328 17.2559L7.59635 23.076C7.56474 23.1998 7.60835 23.2956 7.68827 23.3564C7.72918 23.3875 7.7705 23.4008 7.80315 23.4031C7.83015 23.405 7.86755 23.4011 7.91946 23.3681L13.0494 20.1195C13.0499 20.1192 13.0503 20.1189 13.0508 20.1186C13.3347 19.9385 13.6639 19.8428 14.0002 19.8428C14.3367 19.8428 14.6663 19.9386 14.9504 20.1192C14.9502 20.119 14.9506 20.1193 14.9504 20.1192L20.4607 23.6178C20.4605 23.6176 20.461 23.6179 20.4607 23.6178C20.4707 23.624 20.4772 23.6264 20.479 23.627C20.4813 23.6265 20.4889 23.6244 20.4993 23.6165C20.5125 23.6065 20.521 23.594 20.5248 23.5837C20.5265 23.5791 20.5277 23.5741 20.528 23.5679C20.5284 23.562 20.5282 23.551 20.5239 23.5338C20.5239 23.5337 20.5239 23.5338 20.5239 23.5338L18.9259 17.2514C18.843 16.9173 18.8562 16.5667 18.9639 16.2398C19.0714 15.9136 19.2687 15.6243 19.5332 15.4051C19.5337 15.4047 19.5342 15.4043 19.5348 15.4038L24.4771 11.2816C24.4873 11.2731 24.4916 11.267 24.4935 11.2641C24.4955 11.2609 24.4972 11.2571 24.4986 11.2519C24.5017 11.2401 24.5028 11.2198 24.4955 11.1962C24.4883 11.1728 24.4775 11.1614 24.4743 11.1587C24.4733 11.1578 24.4729 11.1577 24.4726 11.1575C24.4725 11.1575 24.4674 11.1553 24.4547 11.1545C24.4546 11.1545 24.4548 11.1545 24.4547 11.1545L18.0072 10.7392C18.0061 10.7391 18.0051 10.7391 18.004 10.739C17.6594 10.7183 17.3281 10.598 17.0505 10.3927C16.7751 10.189 16.5644 9.9104 16.4432 9.59024L14.0401 3.53859C14.0369 3.53069 14.0339 3.52275 14.031 3.51476C14.0287 3.50843 14.0245 3.50297 14.019 3.4991C14.0135 3.49524 14.0069 3.49316 14.0002 3.49316Z" fill="#8381D9"/>
</g>
<g clip-path="url(#clip1_1536_401)">
<path fill-rule="evenodd" clip-rule="evenodd" d="M12.9774 2.06568C13.2772 1.85577 13.6342 1.74316 14.0002 1.74316C14.3661 1.74316 14.7232 1.85577 15.0229 2.06568C15.3185 2.27275 15.5443 2.56462 15.6704 2.90259L18.0728 8.95209L18.0799 8.97078C18.0822 8.97676 18.0861 8.98196 18.0912 8.98575C18.0963 8.98954 18.1024 8.99176 18.1088 8.99213L18.1142 8.99244L24.5673 9.40809C26.2425 9.51686 26.815 11.6138 25.5958 12.6273C25.5956 12.6275 25.5954 12.6277 25.5951 12.6278L20.6528 16.7501L20.6499 16.7525C20.6388 16.7617 20.6305 16.7738 20.626 16.7875C20.6216 16.8009 20.621 16.8152 20.6241 16.8288C20.6242 16.8292 20.6243 16.8296 20.6244 16.8299L22.22 23.1031C22.6064 24.6281 20.9596 26.0015 19.5271 25.0979L19.5249 25.0965L14.0124 21.5965C14.0089 21.5943 14.0043 21.5928 14.0002 21.5928C13.996 21.5928 13.9919 21.594 13.9884 21.5962L13.987 21.5971L8.85899 24.8445C8.85872 24.8447 8.85845 24.8448 8.85819 24.845C7.28669 25.8441 5.47162 24.3251 5.90063 22.6436C5.90056 22.6438 5.9007 22.6433 5.90063 22.6436L7.37591 16.8299C7.376 16.8296 7.37608 16.8293 7.37615 16.8289C7.37936 16.8152 7.37873 16.8009 7.37432 16.7875C7.3698 16.7738 7.36151 16.7617 7.35039 16.7525L7.34752 16.7501L2.40518 12.6278C2.40495 12.6276 2.40472 12.6275 2.40448 12.6273C1.18535 11.6138 1.75738 9.51689 3.43252 9.40812L9.89152 8.99211C9.89789 8.99174 9.90401 8.98954 9.90913 8.98575C9.91426 8.98196 9.91817 8.97676 9.92038 8.97078L9.92756 8.95209L12.3299 2.90259C12.456 2.56462 12.6818 2.27275 12.9774 2.06568ZM14.0002 3.49316C13.9934 3.49316 13.9869 3.49524 13.9813 3.4991C13.9758 3.50296 13.9716 3.50843 13.9693 3.51476C13.9664 3.52275 13.9634 3.53069 13.9603 3.53859L11.5571 9.59024C11.4359 9.9104 11.2252 10.189 10.9499 10.3927C10.6722 10.598 10.341 10.7183 9.99629 10.739L3.54592 11.1544C3.54583 11.1544 3.54602 11.1544 3.54592 11.1544C3.53318 11.1553 3.52792 11.1575 3.52782 11.1575C3.52743 11.1577 3.5271 11.1578 3.52598 11.1587C3.5228 11.1614 3.51204 11.1728 3.50479 11.1962C3.49751 11.2198 3.4986 11.2401 3.50171 11.2519C3.50307 11.2571 3.50482 11.2609 3.50685 11.2641C3.5087 11.267 3.51302 11.2731 3.52326 11.2816L3.52468 11.2828L8.46555 15.4038C8.46613 15.4043 8.4667 15.4048 8.46727 15.4052C8.73165 15.6244 8.92891 15.9136 9.03639 16.2398C9.14411 16.5667 9.15729 16.9173 9.07441 17.2514L9.07328 17.2559L7.59635 23.076C7.56474 23.1998 7.60835 23.2956 7.68827 23.3564C7.72918 23.3875 7.7705 23.4008 7.80315 23.4031C7.83015 23.405 7.86755 23.4011 7.91946 23.3681L13.0494 20.1195C13.0499 20.1192 13.0503 20.1189 13.0508 20.1186C13.3347 19.9385 13.6639 19.8428 14.0002 19.8428C14.3367 19.8428 14.6663 19.9386 14.9504 20.1192C14.9502 20.119 14.9506 20.1193 14.9504 20.1192L20.4607 23.6178C20.4605 23.6176 20.461 23.6179 20.4607 23.6178C20.4707 23.624 20.4772 23.6264 20.479 23.627C20.4813 23.6265 20.4889 23.6244 20.4993 23.6165C20.5125 23.6065 20.521 23.594 20.5248 23.5837C20.5265 23.5791 20.5277 23.5741 20.528 23.5679C20.5284 23.562 20.5282 23.551 20.5239 23.5338C20.5239 23.5337 20.5239 23.5338 20.5239 23.5338L18.9259 17.2514C18.843 16.9173 18.8562 16.5667 18.9639 16.2398C19.0714 15.9136 19.2687 15.6243 19.5332 15.4051C19.5337 15.4047 19.5342 15.4043 19.5348 15.4038L24.4771 11.2816C24.4873 11.2731 24.4916 11.267 24.4935 11.2641C24.4955 11.2609 24.4972 11.2571 24.4986 11.2519C24.5017 11.2401 24.5028 11.2198 24.4955 11.1962C24.4883 11.1728 24.4775 11.1614 24.4743 11.1587C24.4733 11.1578 24.4729 11.1577 24.4726 11.1575C24.4725 11.1575 24.4674 11.1553 24.4547 11.1545C24.4546 11.1545 24.4548 11.1545 24.4547 11.1545L18.0072 10.7392C18.0061 10.7391 18.0051 10.7391 18.004 10.739C17.6594 10.7183 17.3281 10.598 17.0505 10.3927C16.7751 10.189 16.5644 9.9104 16.4432 9.59024L14.0401 3.53859C14.0369 3.53069 14.0339 3.52275 14.031 3.51476C14.0287 3.50843 14.0245 3.50297 14.019 3.4991C14.0135 3.49524 14.0069 3.49316 14.0002 3.49316Z" fill="#8381D9"/>
</g>
<defs>
<clipPath id="clip0_1536_401">
<rect width="14" height="28" fill="white"/>
</clipPath>
<clipPath id="clip1_1536_401">
<rect width="14" height="28" fill="white" transform="translate(14)"/>
</clipPath>
</defs>
</svg>
